<svg version="1.2" xmlns="http://www.w3.org/2000/svg" viewBox="0 0 1000 1000" width="1000" height="1000"><style>.a{fill:#fff}.b{fill:#f3f5f6}.c{fill:#302c4d}.d{fill:#657e92}.e{fill:#e66239}.f{fill:#a3b2be}</style><g style="display:none"><path class="a" d="m1000 1000h-1000v-1000h1000z"/></g><path class="b" d="m934.9 750v-500l-433-250-433 250v500l433 250z"/><path class="c" d="m498.9 143.1l147.8 95.3 78.4 203.5-61.5 112.3 171.7 65.7 97.5 127.2-433.9 252.9-433.8-252.9 97.5-127.2 171.6-65.7-61.4-112.3 78.4-203.5z"/><path class="d" d="m672.7 557.7l33.8 41.6v102.8l93.8-72.2 36.6 91.2 11.1-57.2 84.8 83.2-97.5-127.2z"/><path class="d" d="m325.2 557.7l-33.9 41.6v102.8l-93.8-72.2-36.5 91.2-11.2-57.2-84.7 83.2 97.5-127.2z"/><path class="d" d="m273.2 868.4l80.1-94.8 65.2 94.8 80.4-121.3 80.5 121.3 65.1-94.8 80.1 94.8-225.7 131.6z"/><path class="d" d="m498.9 314.2l117 30.2 74.7 100.1-149.4 207.9 81.1-31.4 41.3-66.8 61.5-112.3-78.4-203.5-147.8-95.3-147.7 95.3-78.4 203.5 61.4 112.3 41.4 66.8 81 31.4-149.4-207.9 74.7-100.1z"/><path class="e" d="m452.2 404.8l-92 35v25.1l92 35v-24.2l-64.4-23.3 64.4-23.6zm5.4 134.5h26.9l63.8-182.1h-26.9zm94.1-134.5v24l64.4 23.6-64.4 23.3v24.2l92-35v-25.1z"/><path class="f" d="m126 294.8v9.1h12.3v49.1h10.8v-58.2z"/><path class="f" d="m804 225.8v9.1h12.3v49.1h10.8v-58.2z"/><path class="f" d="m258.8 266.8c13.9 0 24.4-10.8 24.4-29.9 0-19.1-10.5-29.9-24.4-29.9-13.8 0-24.2 10.8-24.2 29.9 0 19.1 10.4 29.9 24.2 29.9zm0-9.4c-7.9 0-13.4-6.4-13.4-20.5 0-14 5.5-20.5 13.4-20.5 8 0 13.5 6.5 13.5 20.5 0 14.1-5.5 20.5-13.5 20.5z"/><path class="f" d="m756.6 371.8c13.9 0 24.4-10.8 24.4-29.9 0-19.1-10.5-29.9-24.4-29.9-13.8 0-24.2 10.8-24.2 29.9 0 19.1 10.4 29.9 24.2 29.9zm0-9.4c-7.9 0-13.3-6.4-13.3-20.5 0-14 5.4-20.5 13.3-20.5 8 0 13.5 6.5 13.5 20.5 0 14.1-5.5 20.5-13.5 20.5z"/><path class="f" d="m868.7 371.4v10.8h14.7v58.8h12.9v-69.6z"/><path class="f" d="m361 116.4v10.8h14.7v58.8h12.9v-69.6z"/><path class="f" d="m214.3 457c16.6 0 29.1-12.9 29.1-35.8 0-22.9-12.5-35.8-29.1-35.8-16.5 0-29 12.9-29 35.8 0 22.9 12.5 35.8 29 35.8zm0-11.2c-9.5 0-16-7.8-16-24.6 0-16.8 6.5-24.6 16-24.6 9.5 0 16.1 7.8 16.1 24.6 0 16.8-6.6 24.6-16.1 24.6z"/><path class="f" d="m643.4 188c16.6 0 29.1-12.9 29.1-35.8 0-22.9-12.5-35.8-29.1-35.8-16.5 0-29 12.9-29 35.8 0 22.9 12.5 35.8 29 35.8zm0-11.2c-9.5 0-16-7.8-16-24.6 0-16.8 6.5-24.6 16-24.6 9.5 0 16.1 7.8 16.1 24.6 0 16.8-6.6 24.6-16.1 24.6z"/><path class="f" d="m116.2 474.6v15.2h20.6v82.2h18.1v-97.4z"/><path class="f" d="m798.7 559.4c23.3 0 40.8-18.1 40.8-50.1 0-32-17.5-50.1-40.8-50.1-23.1 0-40.6 18.1-40.6 50.1 0 32 17.5 50.1 40.6 50.1zm0-15.7c-13.2 0-22.4-10.9-22.4-34.4 0-23.5 9.2-34.4 22.4-34.4 13.4 0 22.6 10.9 22.6 34.4 0 23.5-9.2 34.4-22.6 34.4z"/><g style="display:none"><path class="c" d="m360.7 740.4v12.1h-13.9v-12.1h-7.1v30.6h7.1v-12.6h13.9v12.6h7.1v-30.6zm37.2 30.6h7.5l-13.7-30.6h-7l-13.7 30.6h7.3l2.7-6.6h14.2zm-14.6-11.9l4.8-11.7 4.9 11.7zm39.5 12.5c5.3 0 9.7-2 12.6-5.5l-4.5-4.2c-2.1 2.4-4.7 3.6-7.7 3.6-5.8 0-9.8-4-9.8-9.8 0-5.7 4-9.8 9.8-9.8 3 0 5.6 1.3 7.7 3.6l4.5-4.2c-2.9-3.5-7.3-5.4-12.6-5.4-9.5 0-16.6 6.6-16.6 15.8 0 9.3 7.1 15.9 16.6 15.9zm38.3-0.6h8.3l-13.4-16.9 12.7-13.7h-7.9l-13.6 14.3v-14.3h-7v30.6h7v-7.7l4.1-4.3zm18.5-5.7v-7.1h14.2v-5.5h-14.2v-6.6h16.1v-5.7h-23.1v30.6h23.7v-5.7zm49.4 5.7l-6.9-9.8c4-1.7 6.3-5.1 6.3-9.7 0-6.9-5.1-11.1-13.3-11.1h-13.2v30.6h7.1v-8.5h6.1 0.4l5.9 8.5zm-7.8-19.5c0 3.3-2.1 5.3-6.5 5.3h-5.7v-10.6h5.7c4.4 0 6.5 1.9 6.5 5.3z"/><path class="e" d="m534.1 771h22.4v-5.8h-15.3v-24.8h-7.1zm40.7 0.5c9.6 0 16.7-6.7 16.7-15.8 0-9.2-7.1-15.9-16.7-15.9-9.7 0-16.8 6.8-16.8 15.9 0 9.1 7.1 15.8 16.8 15.8zm0-6c-5.5 0-9.6-4-9.6-9.8 0-5.8 4.1-9.8 9.6-9.8 5.5 0 9.6 4 9.6 9.8 0 5.8-4.1 9.8-9.6 9.8zm42.8-1.3c-1.8 0.9-3.6 1.3-5.5 1.3-5.9 0-10-4.1-10-9.8 0-5.8 4.1-9.8 10-9.8 3.2 0 5.7 1.1 8 3.4l4.5-4.2c-3-3.4-7.4-5.3-12.8-5.3-9.8 0-16.8 6.6-16.8 15.9 0 9.2 7 15.8 16.7 15.8 4.3 0 9-1.3 12.3-3.9v-12.4h-6.4zm27.8 7.3c9.7 0 16.8-6.7 16.8-15.8 0-9.1-7.1-15.8-16.8-15.8-9.6 0-16.7 6.7-16.7 15.8 0 9.1 7.1 15.8 16.7 15.8zm0-6c-5.4 0-9.5-4-9.5-9.8 0-5.8 4.1-9.8 9.5-9.8 5.5 0 9.6 4 9.6 9.8 0 5.8-4.1 9.8-9.6 9.8z"/><path class="f" d="m392.5 810h2.6v-15.9h6.2v-2.2h-15v2.2h6.2zm26.9 0h2.7l-8.2-18.1h-2.6l-8.2 18.1h2.7l1.9-4.5h9.7zm-10.7-6.6l3.9-8.9 3.9 8.9zm31 3.3c-1.3 0.8-2.7 1.2-4.2 1.2-4.2 0-7.2-3-7.2-7 0-4 3-7 7.2-7 2.1 0 3.8 0.7 5.3 2.1l1.6-1.6c-1.7-1.8-4.1-2.8-7-2.8-5.6 0-9.7 3.9-9.7 9.3 0 5.4 4.1 9.3 9.7 9.3 2.5 0 5-0.8 6.8-2.3v-7.1h-2.5zm10.1 3.3h12.4v-2.3h-9.8v-15.9h-2.6zm18 0h2.6v-18.1h-2.6zm23.6-18.2v13.6l-10.9-13.6h-2.1v18.2h2.6v-13.6l10.9 13.6h2.1v-18.2zm13.2 15.9v-5.8h9.1v-2.2h-9.1v-5.6h10.2v-2.3h-12.8v18.2h13.2v-2.3zm39.9-15.9v7.8h-10.4v-7.8h-2.6v18.2h2.6v-8.1h10.4v8.1h2.6v-18.2zm13.2 15.9v-5.8h9.1v-2.2h-9.1v-5.6h10.3v-2.3h-12.9v18.2h13.2v-2.3zm32.3 2.3l-4.3-6.1c2.6-0.9 4-2.9 4-5.7 0-4-2.8-6.4-7.5-6.4h-7.1v18.2h2.6v-5.5h4.5c0.3 0 0.7-0.1 1.1-0.1l3.9 5.6zm-7.9-7.7h-4.5v-8.2h4.5c3.3 0 5 1.5 5 4.1 0 2.5-1.7 4.1-5 4.1zm17 5.4v-5.8h9.1v-2.2h-9.1v-5.6h10.2v-2.3h-12.8v18.2h13.2v-2.3z"/></g></svg>